<?xml version="1.0" encoding="UTF-8" standalone="no"?>
<!-- Created with Inkscape (http://www.inkscape.org/) -->

<svg
   width="120"
   height="120"
   viewBox="0 0 120 120"
   version="1.1"
   id="svg1"
   xmlns="http://www.w3.org/2000/svg"
   xmlns:svg="http://www.w3.org/2000/svg">
  <defs
     id="defs1" />
  <g
     id="layer1">
    <g
       id="g1"
       transform="matrix(1.8222797,0,0,1.8222797,-43.078347,-40.622027)">
      <path
         fill="#ffffff"
         d="m 43.047447,60.991158 c -11.9,5.8 -15.125903,-21.092154 -15.125903,-21.092154 -9.2,23.8 8.225903,29.692154 16.025903,28.492154 z m 24.6,0 c 11.9,5.8 17.815816,-20.643836 17.815816,-20.643836 9.2,23.8 -10.915816,29.243836 -18.715816,28.043836 z"
         id="path6"
         style="fill:#decd87" />
      <path
         fill="#fc97b2"
         d="m 69.347447,63.491158 c 0,8.1 -6.778159,7.733869 -14,5.705604 -7.074931,2.281501 -14,2.394396 -14,-5.705604 0,-8.1 6.3,-12.1 14,-12.1 7.8,-0.1 14,4 14,12.1"
         id="path9" />
      <g
         fill="#7a495a"
         id="g10"
         transform="translate(23.347447,13.691158)">
        <ellipse
           cx="25.700001"
           cy="48"
           rx="3.4000001"
           ry="6.3000002"
           id="ellipse9" />
        <ellipse
           cx="38.299999"
           cy="48"
           rx="3.4000001"
           ry="6.3000002"
           id="ellipse10" />
      </g>
    </g>
  </g>
</svg>
